<?xml version="1.0" standalone="no"?>
<!DOCTYPE svg PUBLIC "-//W3C//DTD SVG 20010904//EN"
 "http://www.w3.org/TR/2001/REC-SVG-20010904/DTD/svg10.dtd">
<svg version="1.0" xmlns="http://www.w3.org/2000/svg"
 width="700.000000pt" height="700.000000pt" viewBox="0 0 700.000000 700.000000"
 preserveAspectRatio="xMidYMid meet">
<metadata>
Created by potrace 1.11, written by Peter Selinger 2001-2013
</metadata>
<g transform="translate(0.000000,700.000000) scale(0.100000,-0.100000)"
fill="#000000" stroke="none">
<path d="M3309 6696 c-2 -2 -42 -6 -89 -10 -105 -7 -258 -29 -415 -61 -129
-26 -383 -106 -535 -170 -210 -87 -516 -259 -655 -367 -96 -75 -149 -117 -190
-151 -92 -75 -329 -321 -418 -432 -79 -98 -247 -337 -247 -350 0 -3 -10 -22
-23 -43 -172 -274 -335 -721 -391 -1072 -3 -19 -8 -46 -10 -60 -37 -195 -42
-676 -11 -890 49 -329 146 -674 253 -895 11 -22 30 -62 42 -90 19 -41 59 -116
135 -250 6 -11 25 -42 43 -70 263 -410 627 -766 1037 -1017 195 -119 438 -232
650 -303 109 -36 346 -98 421 -109 21 -4 64 -11 94 -16 170 -28 251 -34 490
-35 218 0 401 11 486 30 12 3 39 7 60 10 21 3 59 10 84 16 25 5 54 11 65 13
65 13 163 39 245 65 511 158 949 420 1315 786 158 157 202 207 310 350 262
348 445 732 549 1152 33 134 39 164 51 248 4 22 8 47 10 55 3 8 7 42 11 74 3
33 8 69 11 80 9 40 11 492 2 581 -25 262 -81 541 -145 725 -51 146 -69 192
-104 275 -153 358 -388 704 -670 985 -191 191 -307 287 -513 424 -320 212
-712 378 -1067 450 -14 3 -45 10 -70 15 -47 11 -57 12 -235 37 -96 14 -566 30
-576 20z"/>
</g>
</svg>
